HIERARCHY
ROOT Hips
{
	OFFSET 50.538200 -1.069106 96.817398
	CHANNELS 6 Xposition Yposition Zposition Xrotation Yrotation Zrotation
	JOINT spine
	{
		OFFSET 0.000000 -0.458068 7.965683
		CHANNELS 3 Xrotation Yrotation Zrotation
		JOINT spine1
		{
			OFFSET 0.000000 -0.000002 10.243103
			CHANNELS 3 Xrotation Yrotation Zrotation
			JOINT spine2
			{
				OFFSET 0.000000 -0.000002 9.814751
				CHANNELS 3 Xrotation Yrotation Zrotation
				JOINT Neck
				{
					OFFSET 0.000000 -1.201384 25.198601
					CHANNELS 3 Xrotation Yrotation Zrotation
					JOINT Head
					{
						OFFSET 0.000000 -0.000001 7.613144
						CHANNELS 3 Xrotation Yrotation Zrotation
						End Site
						{
							OFFSET 0.000000 6.077327 18.428101
						}
					}
				}
				JOINT RightShoulder
				{
					OFFSET -4.132698 0.575449 10.599205
					CHANNELS 3 Xrotation Yrotation Zrotation
					JOINT RightArm
					{
						OFFSET 0.000000 -0.000002 13.901794
						CHANNELS 3 Xrotation Yrotation Zrotation
						JOINT RightArmRoll
						{
							OFFSET 0.000000 -0.000001 7.017883
							CHANNELS 3 Xrotation Yrotation Zrotation
							JOINT RightForeArm
							{
								OFFSET 0.000000 -0.000003 20.440598
								CHANNELS 3 Xrotation Yrotation Zrotation
								JOINT RightForeArmRoll
								{
									OFFSET 0.000000 -0.000001 7.875153
									CHANNELS 3 Xrotation Yrotation Zrotation
									JOINT RightHand
									{
										OFFSET 0.000000 -0.000003 15.803696
										CHANNELS 3 Xrotation Yrotation Zrotation
										End Site
										{
											OFFSET 0.000000 0.000000 0.100006
										}
									}
								}
							}
						}
					}
				}
				JOINT LeftShoulder
				{
					OFFSET 4.132698 0.575449 10.599205
					CHANNELS 3 Xrotation Yrotation Zrotation
					JOINT LeftArm
					{
						OFFSET 0.000000 -0.000002 13.901794
						CHANNELS 3 Xrotation Yrotation Zrotation
						JOINT LeftArmRoll
						{
							OFFSET 0.000000 -0.000001 7.017883
							CHANNELS 3 Xrotation Yrotation Zrotation
							JOINT LeftForeArm
							{
								OFFSET 0.000000 -0.000003 20.440598
								CHANNELS 3 Xrotation Yrotation Zrotation
								JOINT LeftForeArmRoll
								{
									OFFSET 0.000000 -0.000001 7.875153
									CHANNELS 3 Xrotation Yrotation Zrotation
									JOINT LeftHand
									{
										OFFSET 0.000000 -0.000003 15.803696
										CHANNELS 3 Xrotation Yrotation Zrotation
										End Site
										{
											OFFSET 0.000000 0.000000 0.100006
										}
									}
								}
							}
						}
					}
				}
			}
		}
	}
	JOINT RightUpLeg
	{
		OFFSET -7.060478 1.086090 -1.294701
		CHANNELS 3 Xrotation Yrotation Zrotation
		JOINT RightUpLegRoll
		{
			OFFSET 0.000000 -0.000003 18.530800
			CHANNELS 3 Xrotation Yrotation Zrotation
			JOINT RightLeg
			{
				OFFSET 0.000000 0.000004 -22.947601
				CHANNELS 3 Xrotation Yrotation Zrotation
				JOINT RightLegRoll
				{
					OFFSET 0.000000 -0.000004 23.022598
					CHANNELS 3 Xrotation Yrotation Zrotation
					JOINT RightFoot
					{
						OFFSET 0.000000 -0.000003 19.162506
						CHANNELS 3 Xrotation Yrotation Zrotation
						JOINT RightToeBase
						{
							OFFSET 0.000000 -0.000003 16.018799
							CHANNELS 3 Xrotation Yrotation Zrotation
							End Site
							{
								OFFSET 0.006790 0.894205 7.757828
							}
						}
					}
				}
			}
		}
	}
	JOINT LeftUpLeg
	{
		OFFSET 7.060478 1.086090 -1.294701
		CHANNELS 3 Xrotation Yrotation Zrotation
		JOINT LeftUpLegRoll
		{
			OFFSET 0.000000 -0.000003 18.530899
			CHANNELS 3 Xrotation Yrotation Zrotation
			JOINT LeftLeg
			{
				OFFSET 0.000000 -0.000004 22.947502
				CHANNELS 3 Xrotation Yrotation Zrotation
				JOINT LeftLegRoll
				{
					OFFSET 0.000000 -0.000004 23.235504
					CHANNELS 3 Xrotation Yrotation Zrotation
					JOINT LeftFoot
					{
						OFFSET 0.000000 -0.000003 18.949600
						CHANNELS 3 Xrotation Yrotation Zrotation
						JOINT LeftToeBase
						{
							OFFSET 0.000000 -0.000003 16.018799
							CHANNELS 3 Xrotation Yrotation Zrotation
							End Site
							{
								OFFSET -0.030430 0.894206 7.757812
							}
						}
					}
				}
			}
		}
	}
}
MOTION
Frames: 13
Frame Time: 0.041667
53.369804 -7.918975 96.792389 -4.578011 1.267285 -2.599574 -0.476903 -0.169027 -0.176068 3.048520 -0.325386 -0.351598 4.693601 -0.329611 -0.347725 6.859729 4.760597 -0.955555 17.264726 -6.294696 0.167990 -16.863447 -74.375986 -20.114026 -70.453893 -112.879060 -64.238277 0.000001 -0.000010 0.000003 17.382014 -10.152231 0.568436 -0.000005 0.000008 -3.000000 -5.000219 -7.998794 0.000145 -7.144008 60.981773 8.592025 -43.160187 116.509094 40.589752 -0.000002 -0.000016 -0.000000 15.656745 8.565565 -0.285111 -0.000002 -0.000006 3.000001 -5.000214 7.998915 -0.000132 2.206504 -179.302520 1.953473 -179.999991 0.000005 -1.190005 172.178264 -1.316639 -0.620846 0.000003 0.000003 0.106411 69.000210 6.928180 2.058765 25.456935 -7.350305 -0.000000 2.459151 175.181429 -1.546466 -0.000020 -0.000004 -1.168620 -5.947655 1.841968 0.258368 -0.000004 0.000001 -0.061663 68.764876 -6.911318 -2.084031 25.456882 7.349456 0.000008 
53.378204 -7.918936 96.792900 -4.570689 1.268904 -2.605547 -0.474045 -0.169807 -0.177239 3.054231 -0.327885 -0.353948 4.699311 -0.332136 -0.350041 6.846388 4.775027 -0.955750 17.254948 -6.305861 0.168117 -16.847570 -74.355536 -20.096517 -70.418403 -112.854157 -64.206210 -0.000002 -0.000010 0.000004 17.396953 -10.155440 0.570293 -0.000006 0.000007 -3.000000 -5.000221 -7.998794 0.000145 -7.131406 60.987961 8.577795 -43.064370 116.449685 40.467221 -0.000003 -0.000016 -0.000000 15.775377 8.544252 -0.289022 -0.000001 -0.000006 3.000000 -5.000214 7.998914 -0.000131 2.189910 -179.309500 1.944304 -179.999991 0.000005 -1.190004 172.160177 -1.310641 -0.621454 0.000002 0.000003 0.106398 68.996208 6.928208 2.058719 25.456933 -7.350305 -0.000002 2.439288 175.176348 -1.552209 -0.000020 -0.000004 -1.168620 -5.974466 1.847189 0.259639 -0.000004 0.000001 -0.061977 68.767827 -6.911320 -2.083947 25.456883 7.349454 0.000009 
53.376404 -7.929328 96.792297 -4.563583 1.270501 -2.611359 -0.471227 -0.170563 -0.178398 3.059852 -0.330369 -0.356276 4.704932 -0.334646 -0.352336 6.833525 4.789365 -0.956093 17.245369 -6.317210 0.168182 -16.832101 -74.335462 -20.079457 -70.383453 -112.829377 -64.174675 -0.000002 -0.000011 0.000003 17.411074 -10.158692 0.572100 -0.000007 0.000007 -3.000000 -5.000222 -7.998795 0.000145 -7.117098 60.994341 8.561591 -42.965599 116.391860 40.338868 -0.000003 -0.000017 -0.000000 15.893002 8.520930 -0.292515 0.000001 -0.000006 3.000001 -5.000215 7.998913 -0.000131 2.174218 -179.316494 1.935628 -179.999991 0.000005 -1.190006 172.143279 -1.304647 -0.622018 0.000003 0.000003 0.106379 68.992301 6.928207 2.058765 25.456933 -7.350303 -0.000002 2.419905 175.170283 -1.558202 -0.000020 -0.000004 -1.168630 -6.000827 1.852569 0.260898 -0.000004 0.000001 -0.062273 68.770668 -6.911318 -2.083970 25.456880 7.349453 0.000010 
53.378803 -7.930147 96.796097 -4.556626 1.272098 -2.617047 -0.468443 -0.171303 -0.179551 3.065413 -0.332844 -0.358590 4.710495 -0.337144 -0.354615 6.821015 4.803640 -0.956538 17.235895 -6.328683 0.168176 -16.817019 -74.315675 -20.062818 -70.348852 -112.804768 -64.143468 -0.000001 -0.000010 0.000004 17.424497 -10.162172 0.573915 -0.000006 0.000008 -3.000000 -5.000224 -7.998794 0.000145 -7.101557 61.000788 8.543943 -42.868019 116.333421 40.210072 -0.000004 -0.000017 -0.000000 16.009950 8.496195 -0.295669 -0.000001 -0.000006 3.000001 -5.000211 7.998912 -0.000132 2.159152 -179.323475 1.927305 -179.999991 0.000005 -1.190005 172.127119 -1.299644 -0.621701 0.000003 0.000003 0.106355 68.988387 6.928204 2.058808 25.456936 -7.350302 -0.000001 2.400844 175.165228 -1.564286 -0.000020 -0.000004 -1.168630 -6.026881 1.858060 0.262151 -0.000004 0.000002 -0.062556 68.773523 -6.911315 -2.084090 25.456878 7.349453 0.000009 
53.377205 -7.918168 96.792191 -4.549744 1.273685 -2.622664 -0.465678 -0.172031 -0.180698 3.070944 -0.335312 -0.360893 4.716025 -0.339637 -0.356884 6.808703 4.817874 -0.957041 17.226424 -6.340240 0.168130 -16.802014 -74.295881 -20.046255 -70.314257 -112.780247 -64.112281 0.000000 -0.000011 0.000004 17.437507 -10.165575 0.575669 -0.000007 0.000008 -3.000000 -5.000223 -7.998794 0.000144 -7.085355 61.007373 8.525533 -42.768671 116.275774 40.078355 -0.000003 -0.000017 -0.000000 16.126541 8.470666 -0.298592 -0.000004 -0.000006 3.000000 -5.000213 7.998913 -0.000131 2.144458 -179.329458 1.919228 -179.999991 0.000005 -1.190005 172.111410 -1.293641 -0.622230 0.000003 0.000003 0.106328 68.984583 6.928170 2.058741 25.456935 -7.350306 -0.000002 2.381972 175.160160 -1.570443 -0.000020 -0.000004 -1.168640 -6.052764 1.863619 0.263402 -0.000004 0.000001 -0.062832 68.776460 -6.911283 -2.084001 25.456883 7.349455 0.000009 
53.377106 -7.923905 96.792496 -4.542897 1.275273 -2.628261 -0.462917 -0.172758 -0.181845 3.076454 -0.337780 -0.363194 4.721536 -0.342129 -0.359152 6.796433 4.832109 -0.957554 17.217066 -6.351804 0.168085 -16.787222 -74.276285 -20.029924 -70.279689 -112.755836 -64.081101 -0.000001 -0.000011 0.000004 17.450426 -10.169085 0.577447 -0.000006 0.000008 -3.000000 -5.000221 -7.998794 0.000145 -7.068917 61.013854 8.506861 -42.668933 116.218196 39.946003 -0.000003 -0.000017 -0.000000 16.242914 8.444971 -0.301354 -0.000002 -0.000006 3.000001 -5.000209 7.998914 -0.000132 2.129844 -179.336466 1.911156 -179.999991 0.000005 -1.190004 172.095823 -1.288640 -0.622891 0.000003 0.000003 0.106300 68.980676 6.928166 2.058784 25.456936 -7.350303 -0.000001 2.363146 175.154095 -1.576661 -0.000020 -0.000004 -1.168650 -6.078596 1.869188 0.264656 -0.000004 0.000001 -0.063106 68.779322 -6.911316 -2.083927 25.456883 7.349454 0.000009 
53.377502 -7.926706 96.793800 -4.535998 1.276860 -2.633890 -0.460146 -0.173489 -0.182993 3.081995 -0.340250 -0.365498 4.727078 -0.344625 -0.361423 6.784070 4.846353 -0.958029 17.207598 -6.363345 0.168047 -16.772300 -74.256492 -20.013448 -70.244958 -112.731343 -64.049764 0.000001 -0.000010 0.000004 17.463540 -10.172482 0.579211 -0.000005 0.000007 -3.000001 -5.000219 -7.998794 0.000145 -7.052841 61.020329 8.488599 -42.568806 116.160672 39.813794 -0.000003 -0.000016 -0.000000 16.359599 8.419695 -0.304105 -0.000003 -0.000006 3.000001 -5.000213 7.998914 -0.000132 2.115049 -179.342449 1.903033 -179.999991 0.000005 -1.190004 172.080032 -1.282651 -0.622421 0.000003 0.000003 0.106275 68.976783 6.928199 2.058734 25.456935 -7.350305 -0.000002 2.344225 175.149041 -1.582796 -0.000020 -0.000005 -1.168650 -6.104509 1.874726 0.265919 -0.000004 0.000001 -0.063384 68.782170 -6.911315 -2.083949 25.456885 7.349455 0.000009 
53.364105 -7.923005 96.794403 -4.528989 1.278447 -2.639621 -0.457353 -0.174234 -0.184148 3.087576 -0.342729 -0.367813 4.732660 -0.347129 -0.363705 6.771458 4.860652 -0.958420 17.198020 -6.374784 0.168039 -16.757265 -74.236595 -19.996839 -70.210062 -112.706755 -64.018284 0.000001 -0.000010 0.000003 17.477160 -10.175851 0.581019 -0.000008 0.000007 -3.000001 -5.000225 -7.998793 0.000144 -7.037624 61.026736 8.471339 -42.468115 116.103148 39.682303 -0.000004 -0.000017 -0.000000 16.476628 8.395469 -0.306918 -0.000004 -0.000006 3.000001 -5.000212 7.998913 -0.000132 2.099806 -179.349443 1.894632 -179.999991 0.000005 -1.190005 172.063626 -1.277648 -0.623095 0.000003 0.000003 0.106252 68.972869 6.928195 2.058777 25.456933 -7.350303 -0.000002 2.325064 175.143973 -1.588818 -0.000020 -0.000004 -1.168660 -6.130663 1.880183 0.267195 -0.000004 0.000001 -0.063670 68.785011 -6.911310 -2.084071 25.456882 7.349453 0.000009 
53.362305 -7.932777 96.794189 -4.521822 1.280045 -2.645476 -0.454522 -0.174998 -0.185310 3.093217 -0.345220 -0.370146 4.738301 -0.349645 -0.366003 6.758456 4.875014 -0.958677 17.188342 -6.386077 0.168091 -16.741938 -74.216426 -19.979908 -70.174340 -112.681968 -63.985970 -0.000002 -0.000010 0.000003 17.491495 -10.179176 0.582873 -0.000009 0.000007 -3.000001 -5.000224 -7.998794 0.000145 -7.023795 61.033088 8.455684 -42.368237 116.044873 39.553844 -0.000004 -0.000016 -0.000001 16.594517 8.372880 -0.309926 -0.000005 -0.000006 3.000001 -5.000214 7.998915 -0.000133 2.083845 -179.356424 1.885836 -179.999991 0.000005 -1.190006 172.046373 -1.271655 -0.623662 0.000003 0.000003 0.106234 68.968969 6.928187 2.058722 25.456935 -7.350305 -0.000001 2.305538 175.137921 -1.594725 -0.000020 -0.000004 -1.168660 -6.157156 1.885508 0.268489 -0.000004 0.000001 -0.063972 68.787866 -6.911344 -2.083998 25.456878 7.349454 0.000009 
53.367500 -7.934215 96.795197 -4.514433 1.281643 -2.651526 -0.451649 -0.175789 -0.186486 3.098968 -0.347730 -0.372500 4.744052 -0.352180 -0.368324 6.744910 4.889481 -0.958755 17.178559 -6.397161 0.168220 -16.726148 -74.195771 -19.962462 -70.138154 -112.657038 -63.953213 -0.000000 -0.000010 0.000004 17.506830 -10.182257 0.584738 -0.000009 0.000007 -3.000001 -5.000224 -7.998794 0.000145 -7.011850 61.039242 8.442220 -42.266413 115.987349 39.426106 -0.000002 -0.000016 -0.000001 16.713510 8.352554 -0.313260 -0.000001 -0.000006 3.000001 -5.000213 7.998914 -0.000132 2.066885 -179.363404 1.876494 -179.999991 0.000005 -1.190005 172.027890 -1.264657 -0.624097 0.000003 0.000003 0.106224 68.964946 6.928177 2.058771 25.456936 -7.350306 -0.000000 2.285488 175.132853 -1.600365 -0.000020 -0.000004 -1.168660 -6.184150 1.890662 0.269807 -0.000004 0.000001 -0.064293 68.790817 -6.911310 -2.084009 25.456880 7.349453 0.000009 
53.345604 -7.912186 96.792694 -4.506730 1.283261 -2.657812 -0.448711 -0.176615 -0.187675 3.104829 -0.350262 -0.374885 4.749913 -0.354738 -0.370675 6.730675 4.904085 -0.958608 17.168567 -6.407988 0.168472 -16.709955 -74.174741 -19.944562 -70.101175 -112.631684 -63.919676 -0.000002 -0.000011 0.000003 17.523482 -10.185170 0.586675 -0.000005 0.000008 -3.000001 -5.000221 -7.998794 0.000144 -7.002321 61.045150 8.431548 -42.165384 115.929074 39.302889 -0.000003 -0.000017 -0.000000 16.833836 8.335097 -0.317025 -0.000006 -0.000006 3.000001 -5.000213 7.998912 -0.000131 2.048675 -179.371409 1.866435 -179.999991 0.000005 -1.190004 172.007823 -1.257669 -0.624565 0.000003 0.000003 0.106223 68.960930 6.928166 2.058821 25.456935 -7.350305 -0.000001 2.264783 175.127799 -1.605715 -0.000020 -0.000004 -1.168660 -6.211772 1.895583 0.271151 -0.000004 0.000001 -0.064640 68.793877 -6.911319 -2.083918 25.456885 7.349454 0.000009 
53.339703 -7.915397 96.791397 -4.498694 1.284901 -2.664394 -0.445702 -0.177483 -0.188885 3.110840 -0.352820 -0.377305 4.755925 -0.357324 -0.373061 6.715597 4.918836 -0.958186 17.158357 -6.418497 0.168856 -16.693049 -74.153028 -19.925904 -70.063138 -112.606160 -63.885088 -0.000001 -0.000010 0.000004 17.541746 -10.187898 0.588692 -0.000004 0.000007 -3.000001 -5.000224 -7.998794 0.000144 -6.995745 61.050915 8.424313 -42.063604 115.870731 39.183258 -0.000002 -0.000016 -0.000000 16.955823 8.321111 -0.321343 -0.000004 -0.000006 3.000001 -5.000215 7.998913 -0.000132 2.028930 -179.379387 1.855525 -179.999991 0.000005 -1.190006 171.985844 -1.248687 -0.625787 0.000003 0.000003 0.106231 68.956818 6.928182 2.058781 25.456933 -7.350305 -0.000001 2.243270 175.122731 -1.610723 -0.000020 -0.000005 -1.168660 -6.240144 1.900242 0.272530 -0.000004 0.000001 -0.065018 68.796828 -6.911322 -2.084035 25.456882 7.349453 0.000009 
53.340305 -7.930357 96.794289 -4.490233 1.286551 -2.671325 -0.442603 -0.178399 -0.190115 3.117031 -0.355411 -0.379768 4.762117 -0.359941 -0.375490 6.699539 4.933779 -0.957439 17.147835 -6.428625 0.169392 -16.675331 -74.130563 -19.906328 -70.023987 -112.580164 -63.849421 0.000001 -0.000012 0.000003 17.561828 -10.190331 0.590785 -0.000007 0.000008 -2.999999 -5.000223 -7.998794 0.000144 -6.992639 61.056400 8.421101 -41.962445 115.811581 39.069509 -0.000002 -0.000016 -0.000000 17.079808 8.311194 -0.326369 -0.000002 -0.000006 3.000002 -5.000216 7.998914 -0.000133 2.007375 -179.387378 1.843643 -179.999991 0.000005 -1.190005 171.961637 -1.239698 -0.626067 0.000003 0.000003 0.106254 68.952699 6.928164 2.058835 25.456935 -7.350304 -0.000001 2.220817 175.117663 -1.615327 -0.000020 -0.000004 -1.168660 -6.269408 1.904579 0.273945 -0.000003 0.000001 -0.065433 68.799894 -6.911331 -2.084045 25.456883 7.349455 0.000009 
